
<svg version="1.0" xmlns="http://www.w3.org/2000/svg"
 width="225.000000pt" height="225.000000pt" viewBox="0 0 225.000000 225.000000"
 preserveAspectRatio="xMidYMid meet">

<g transform="translate(0.000000,225.000000) scale(0.100000,-0.100000)"
fill="#000000" stroke="none">
<path d="M1190 2225 c-8 -2 -46 -7 -83 -10 -56 -6 -70 -11 -83 -30 -24 -37 -5
-62 54 -70 205 -27 340 -86 468 -207 48 -46 103 -110 128 -152 139 -222 164
-492 68 -738 -28 -74 -116 -218 -132 -218 -4 0 -47 41 -96 90 -77 80 -92 91
-119 88 l-30 -3 -3 -369 c-2 -264 1 -373 9 -382 9 -11 77 -14 360 -14 303 0
350 2 363 16 9 8 16 22 16 31 0 8 -43 59 -95 113 l-95 98 63 84 c174 230 244
443 234 708 -6 168 -28 256 -102 405 -139 283 -388 481 -675 538 -77 16 -223
28 -250 22z"/>
<path d="M158 2029 c-38 -22 -21 -56 72 -147 50 -49 90 -95 90 -104 0 -8 -9
-23 -21 -34 -70 -63 -202 -310 -239 -449 -33 -120 -38 -329 -12 -455 55 -266
212 -502 432 -649 160 -107 316 -154 515 -155 170 -1 223 8 237 40 17 37 -5
52 -96 64 -322 45 -566 255 -657 566 -46 158 -34 368 31 530 32 79 114 214
131 214 5 0 48 -40 96 -90 47 -49 94 -90 104 -90 51 0 49 -15 49 379 0 272 -3
370 -12 379 -16 16 -694 17 -720 1z"/>
</g>
</svg>
