<?xml version="1.0" standalone="no"?>
<!DOCTYPE svg PUBLIC "-//W3C//DTD SVG 20010904//EN"
 "http://www.w3.org/TR/2001/REC-SVG-20010904/DTD/svg10.dtd">
<svg version="1.0" xmlns="http://www.w3.org/2000/svg"
 width="512.000000pt" height="512.000000pt" viewBox="0 0 512.000000 512.000000"
 preserveAspectRatio="xMidYMid meet">

<g transform="translate(0.000000,512.000000) scale(0.100000,-0.100000)"
fill="#fff" stroke="none">
<path d="M2350 5109 c-479 -54 -905 -260 -1241 -599 -642 -650 -771 -1649
-314 -2443 83 -144 173 -264 294 -390 190 -196 349 -313 581 -424 74 -35 150
-72 169 -81 28 -15 81 -98 371 -587 187 -313 343 -571 347 -572 4 -2 169 260
367 581 l359 584 46 18 c147 55 366 184 511 301 89 72 267 254 331 338 186
243 324 546 384 840 166 815 -173 1635 -871 2105 -196 133 -441 237 -695 295
-173 39 -457 54 -639 34z m385 -299 c603 -68 1110 -419 1379 -956 401 -802
118 -1783 -649 -2254 -86 -53 -227 -121 -317 -151 l-66 -23 -257 -418 c-141
-230 -260 -418 -264 -418 -3 0 -104 167 -225 370 -120 203 -230 389 -245 412
-25 40 -36 46 -132 81 -137 51 -290 132 -414 220 -125 89 -309 272 -398 397
-81 114 -196 341 -236 465 -184 573 -71 1183 305 1646 154 189 394 377 608
474 293 133 614 188 911 155z"/>
<path d="M2341 4354 c-46 -8 -132 -30 -190 -50 -439 -147 -758 -509 -858 -974
-25 -118 -25 -381 1 -500 152 -709 824 -1153 1528 -1009 503 102 893 494 1004
1009 26 119 26 382 1 500 -115 536 -531 939 -1057 1025 -116 18 -315 18 -429
-1z m414 -303 c300 -62 553 -255 688 -526 194 -388 113 -858 -198 -1154 -132
-125 -270 -202 -445 -248 -131 -35 -333 -37 -464 -5 -626 155 -946 837 -660
1407 200 396 649 615 1079 526z"/>
<path d="M2172 3477 c-56 -56 -102 -107 -102 -112 0 -5 62 -72 137 -147 l138
-138 -143 -143 -142 -142 103 -103 c56 -56 107 -102 112 -102 5 0 72 62 147
137 l138 138 138 -138 c75 -75 142 -137 147 -137 5 0 56 46 112 102 l103 103
-142 142 -143 143 138 138 c75 75 137 142 137 147 0 5 -46 56 -102 112 l-103
103 -142 -142 -143 -143 -143 143 -142 142 -103 -103z"/>
</g>
</svg>
