
<svg version="1.0" xmlns="http://www.w3.org/2000/svg"
 width="360.000000pt" height="360.000000pt" viewBox="0 0 360.000000 360.000000"
 preserveAspectRatio="xMidYMid meet">

<g transform="translate(0.000000,360.000000) scale(0.100000,-0.100000)"
fill="#000000" stroke="none">
<path d="M1165 3140 c-363 -39 -660 -296 -756 -655 -26 -96 -31 -304 -10 -399
99 -442 524 -745 964 -687 149 20 312 82 401 153 l38 31 111 -111 112 -112
-48 -48 c-26 -26 -47 -54 -47 -63 0 -19 831 -849 850 -849 24 0 33 9 191 166
123 122 149 153 149 177 0 24 -60 89 -409 438 -310 310 -415 409 -433 409 -15
0 -41 -18 -73 -50 -27 -28 -54 -50 -60 -50 -6 0 -57 47 -113 103 l-104 104 45
64 c131 189 185 410 153 626 -33 215 -112 370 -266 516 -185 178 -439 264
-695 237z m267 -189 c245 -63 434 -247 504 -491 24 -83 26 -103 22 -213 -4
-96 -11 -140 -32 -204 -53 -164 -193 -325 -349 -402 -119 -58 -190 -75 -327
-74 -96 0 -128 5 -195 27 -193 63 -342 189 -426 361 -54 112 -72 190 -72 315
-1 343 231 621 578 694 60 12 227 5 297 -13z"/>
</g>
</svg>
