<?xml version="1.0" standalone="no"?>
<!DOCTYPE svg PUBLIC "-//W3C//DTD SVG 20010904//EN"
 "http://www.w3.org/TR/2001/REC-SVG-20010904/DTD/svg10.dtd">
<svg version="1.0" xmlns="http://www.w3.org/2000/svg"
 width="1066.000000pt" height="1024.000000pt" viewBox="0 0 1066.000000 1024.000000"
 preserveAspectRatio="xMidYMid meet">

<g transform="translate(0.000000,1024.000000) scale(0.100000,-0.100000)"
fill="#fff" stroke="none">
<path d="M4995 10180 c-892 -68 -1634 -290 -2101 -629 -495 -359 -863 -917
-999 -1516 -91 -402 -75 -843 50 -1320 114 -439 325 -852 567 -1110 l58 -62
-31 -149 c-95 -455 -8 -948 211 -1197 34 -39 38 -46 18 -38 -56 21 -652 317
-826 410 -241 129 -269 156 -372 369 -39 79 -89 171 -111 203 -128 189 -366
330 -533 317 -38 -3 -83 -15 -110 -29 -86 -42 -176 -149 -215 -254 -39 -103
-70 -311 -71 -461 l0 -71 -98 -85 c-204 -180 -318 -322 -356 -442 -25 -78 -19
-184 14 -249 65 -128 240 -215 499 -246 107 -13 182 -9 356 22 73 12 163 20
230 20 l110 0 320 -150 c441 -208 923 -438 1350 -646 l360 -176 3 -89 3 -90
-198 -105 c-333 -176 -673 -344 -878 -434 -428 -187 -469 -194 -740 -128 -177
44 -341 36 -542 -26 -85 -27 -160 -95 -206 -188 -30 -61 -32 -73 -32 -171 0
-178 21 -207 409 -571 58 -55 59 -57 71 -135 7 -43 21 -160 30 -259 16 -162
21 -187 50 -252 39 -85 104 -158 177 -199 48 -26 62 -29 148 -29 86 0 102 3
162 32 99 47 128 70 215 168 110 126 129 152 221 305 44 74 102 166 129 203
l48 69 640 339 c352 186 645 338 650 337 6 -2 45 -41 86 -88 142 -160 307
-287 473 -366 168 -79 467 -158 701 -186 171 -20 699 -17 850 5 154 23 354 75
508 133 240 90 371 177 570 376 l138 138 52 -26 c29 -15 309 -159 622 -322
698 -361 668 -338 820 -641 70 -139 85 -161 155 -231 275 -272 488 -316 662
-138 109 111 151 265 183 660 l7 76 146 124 c167 141 261 245 306 338 27 56
31 76 31 145 0 68 -5 88 -29 134 -60 115 -180 195 -371 248 -87 24 -117 27
-230 27 -112 -1 -147 -6 -250 -33 -135 -35 -213 -39 -292 -13 -29 9 -367 163
-752 342 l-701 325 0 105 0 105 986 465 c543 256 1009 473 1038 483 91 32 158
32 281 3 172 -42 230 -46 395 -31 168 17 236 33 321 76 85 42 153 109 191 187
27 55 33 78 36 156 l4 91 -41 60 c-72 106 -182 233 -308 356 l-123 120 0 77
c0 98 -14 190 -46 322 -57 230 -108 317 -226 381 -59 32 -69 34 -158 34 -88 0
-100 -2 -170 -36 -117 -56 -277 -193 -346 -297 -20 -29 -62 -112 -95 -184 -32
-73 -74 -155 -92 -182 -77 -115 -90 -124 -515 -333 -219 -107 -434 -212 -479
-233 l-82 -39 46 62 c142 191 216 461 217 792 1 170 -1 191 -38 372 l-38 192
83 93 c341 379 535 785 614 1283 22 139 31 488 16 654 -49 552 -245 1046 -579
1461 -158 196 -414 430 -607 556 -265 172 -759 342 -1320 453 -347 69 -483 83
-875 86 -190 2 -394 0 -455 -5z m727 -260 c449 -29 1095 -182 1517 -359 155
-65 247 -116 358 -200 535 -405 864 -959 960 -1616 24 -168 24 -586 0 -734
-62 -381 -204 -712 -430 -1004 -52 -67 -62 -76 -68 -59 -17 45 -31 303 -25
442 8 181 20 237 101 474 78 229 90 289 106 520 14 195 6 305 -30 409 -21 61
-75 149 -114 185 l-25 23 -86 -97 c-85 -97 -86 -98 -67 -118 53 -59 77 -176
67 -331 -18 -262 -28 -308 -130 -605 -60 -172 -76 -265 -83 -475 -9 -262 12
-443 108 -923 48 -239 52 -267 52 -407 1 -222 -33 -395 -110 -554 -72 -150
-182 -223 -513 -336 -203 -70 -336 -133 -472 -224 -127 -85 -193 -143 -254
-224 -95 -127 -148 -269 -161 -434 l-6 -82 -46 -15 c-230 -76 -539 -106 -1091
-106 -452 0 -660 18 -897 78 l-108 27 -7 105 c-14 232 -136 453 -328 594 -188
139 -259 176 -455 237 -472 147 -579 229 -668 515 -72 228 -74 468 -8 789 103
497 131 762 111 1030 -13 179 -32 262 -99 455 -29 80 -60 179 -71 220 -36 143
-52 451 -27 547 12 45 23 67 61 118 7 9 -15 41 -74 109 l-83 97 -30 -28 c-44
-42 -93 -122 -117 -194 -29 -83 -37 -268 -21 -461 15 -182 26 -228 111 -478
81 -240 93 -311 92 -550 -1 -134 -23 -394 -34 -405 -6 -6 -108 145 -165 245
-230 400 -363 914 -363 1395 1 348 72 645 236 974 222 449 561 799 981 1014
387 198 873 329 1478 397 253 29 660 37 927 20z m4042 -4712 c50 -46 105 -273
112 -458 8 -210 -8 -178 193 -378 212 -211 285 -303 277 -347 -15 -72 -107
-120 -265 -135 -158 -15 -229 -12 -332 15 -170 46 -305 44 -454 -7 -33 -11
-485 -220 -1005 -465 -520 -245 -951 -448 -959 -451 -11 -4 -12 7 -7 64 13
126 46 267 102 434 54 161 76 210 93 210 9 0 345 163 1051 512 l475 234 68 70
c80 82 136 163 181 259 18 39 53 112 77 164 38 82 53 103 127 172 128 120 214
154 266 107z m-8734 -34 c131 -61 205 -144 298 -338 77 -159 115 -217 196
-303 54 -58 89 -83 203 -145 190 -105 563 -291 1038 -518 220 -105 405 -196
412 -203 19 -20 99 -255 132 -387 31 -127 52 -282 41 -300 -4 -6 -162 65 -391
176 -454 220 -894 430 -1294 617 -271 127 -296 137 -380 148 -103 13 -210 7
-375 -21 -238 -41 -481 -12 -572 68 -27 23 -22 62 18 128 42 70 96 127 261
275 67 60 131 125 143 144 18 30 23 59 31 202 15 257 46 386 109 453 34 37 59
37 130 4z m2476 -1392 c51 -117 144 -373 192 -532 66 -219 96 -356 132 -610
l30 -212 41 -47 c147 -168 382 -315 624 -390 247 -76 480 -105 860 -105 226
-1 302 3 395 17 297 48 585 152 775 280 78 53 187 158 224 216 25 40 32 67 51
211 50 380 140 714 293 1095 l44 110 57 29 c31 16 58 27 61 25 2 -3 -21 -70
-51 -149 -145 -379 -194 -639 -158 -835 13 -74 18 -149 18 -290 0 -457 -112
-753 -395 -1050 -182 -190 -328 -280 -601 -369 -285 -94 -595 -123 -1013 -96
-236 16 -379 44 -612 121 -187 62 -343 165 -490 323 -182 197 -297 401 -352
621 -39 162 -46 226 -46 450 0 172 4 238 18 301 15 69 16 96 7 185 -19 189
-89 444 -189 692 -17 43 -31 82 -31 87 0 5 21 2 46 -7 41 -14 48 -21 70 -71z
m261 -105 c154 -115 243 -276 243 -438 l0 -56 46 -24 c46 -24 46 -24 40 -68
-3 -24 -6 -195 -6 -380 l0 -336 -53 55 -53 55 -22 160 c-50 359 -144 710 -281
1053 -25 63 -24 62 86 -21z m3168 -101 c-127 -351 -180 -562 -230 -914 -25
-178 -36 -211 -88 -260 l-24 -22 -6 196 c-4 109 -7 281 -7 384 l0 187 48 22
48 23 11 86 c14 112 44 189 101 265 42 54 179 174 189 164 2 -2 -17 -61 -42
-131z m-457 -643 l-3 -167 -80 -43 c-44 -23 -86 -43 -93 -43 -10 0 -12 40 -10
182 l3 181 85 28 c47 15 88 27 93 28 4 1 6 -74 5 -166z m-2227 142 c24 -7 63
-19 87 -25 l42 -11 0 -185 0 -185 -90 47 -90 46 0 164 c0 90 1 164 3 164 2 0
23 -7 48 -15z m350 -77 l89 -12 0 -209 0 -209 -29 7 c-16 3 -62 16 -103 28
l-73 23 -3 198 c-2 177 -1 198 13 192 9 -3 56 -11 106 -18z m1587 -175 l-3
-197 -45 -13 c-25 -8 -71 -20 -102 -28 l-58 -13 0 209 c0 115 1 209 3 210 14
3 167 27 185 28 l22 1 -2 -197z m-1287 147 l69 0 0 -223 0 -223 -67 8 c-123
14 -113 1 -113 136 0 196 11 314 27 307 8 -3 46 -5 84 -5z m969 -204 l0 -214
-67 -7 c-38 -4 -75 -7 -83 -8 -13 -2 -15 29 -18 215 l-2 217 42 4 c24 2 62 4
86 5 l42 2 0 -214z m-275 -21 l0 -220 -97 -3 -98 -3 0 220 0 220 63 4 c34 2
78 3 97 3 l35 -1 0 -220z m-305 -10 l0 -225 -89 0 c-49 0 -96 3 -105 6 -14 5
-16 35 -16 225 l0 219 105 0 105 0 0 -225z m1170 -458 c-14 -10 -55 -34 -92
-53 l-68 -34 0 183 0 183 88 45 87 44 5 -175 5 -175 -25 -18z m-2162 318 l82
-38 -1 -116 c-1 -64 -4 -147 -8 -184 l-6 -68 -87 52 -88 53 0 150 c0 145 6
201 19 193 3 -2 43 -21 89 -42z m390 -140 c2 -2 1 -87 -3 -189 -5 -131 -10
-184 -19 -181 -6 2 -50 15 -98 30 l-88 26 0 188 0 188 102 -28 c56 -16 103
-31 106 -34z m1502 -125 l0 -189 -97 -31 c-54 -16 -101 -30 -105 -30 -4 0 -8
87 -8 193 l0 192 103 26 c56 15 103 27 105 28 1 0 2 -84 2 -189z m-310 -84 l0
-194 -79 -12 c-44 -7 -84 -9 -90 -6 -7 5 -11 73 -11 201 l0 193 83 9 c45 5 85
7 90 5 4 -2 7 -90 7 -196z m-962 178 l52 -7 0 -192 0 -192 -62 9 c-35 4 -75
11 -90 14 l-28 6 0 190 0 191 38 -6 c20 -3 61 -9 90 -13z m682 -209 l0 -205
-100 0 -100 0 0 199 0 200 43 4 c23 2 68 4 100 5 l57 2 0 -205z m-310 -5 l0
-201 -102 7 c-57 3 -106 9 -109 13 -3 3 -4 90 -1 194 l4 187 104 0 104 0 0
-200z m-1875 -260 c14 -41 45 -115 69 -165 24 -49 43 -91 42 -92 -1 -1 -292
-156 -646 -343 -529 -280 -652 -349 -684 -383 -49 -53 -119 -157 -218 -322
-171 -285 -338 -427 -416 -355 -42 39 -51 75 -71 277 -23 218 -45 353 -66 393
-8 15 -101 109 -209 210 -107 101 -204 200 -215 221 -29 51 -28 110 4 147 33
39 121 64 251 70 90 4 116 1 235 -29 112 -27 152 -32 244 -32 65 0 137 7 176
16 172 41 671 266 1159 521 l274 144 23 -101 c13 -56 34 -135 48 -177z m4626
-58 c355 -165 673 -309 705 -319 44 -13 91 -18 189 -18 114 1 142 4 230 30
134 40 262 40 380 2 92 -30 170 -76 180 -106 16 -50 -62 -145 -239 -294 -205
-172 -224 -192 -235 -250 -6 -29 -15 -110 -21 -182 -21 -261 -46 -376 -96
-442 -20 -26 -32 -33 -58 -33 -43 0 -129 56 -223 147 -61 59 -77 83 -127 188
-76 158 -147 263 -243 356 -78 77 -79 77 -613 354 -586 304 -720 374 -720 380
0 2 20 44 44 92 50 101 86 203 111 318 10 44 19 86 21 93 4 16 -62 45 715
-316z"/>
<path d="M4410 6417 c-3 -3 -88 -15 -190 -27 -102 -12 -277 -34 -390 -50 -113
-17 -224 -32 -247 -35 -105 -13 -236 -86 -316 -175 -93 -103 -132 -213 -125
-354 4 -89 7 -98 106 -338 56 -136 102 -250 102 -253 0 -14 98 -133 156 -190
76 -74 151 -119 257 -158 195 -69 374 -39 516 89 135 121 407 502 521 727 l64
126 4 118 c7 182 -31 300 -129 408 -70 75 -139 108 -243 113 -45 2 -83 2 -86
-1z"/>
<path d="M6103 6406 c-127 -41 -228 -162 -269 -326 -25 -98 -16 -264 19 -349
84 -202 360 -604 538 -782 130 -130 290 -176 467 -134 241 57 422 219 527 473
29 70 74 179 100 242 79 190 91 265 60 384 -43 166 -169 305 -325 361 -64 23
-290 58 -710 111 -268 33 -353 38 -407 20z"/>
<path d="M5170 5048 c-146 -121 -240 -238 -320 -398 -97 -193 -123 -314 -124
-570 -1 -182 12 -250 62 -350 30 -59 79 -100 120 -100 63 0 194 96 294 217
l58 68 2 598 c2 393 0 597 -7 597 -5 0 -44 -28 -85 -62z"/>
<path d="M5412 4512 l5 -600 58 -67 c162 -184 286 -251 359 -194 117 92 156
415 90 739 -33 161 -158 396 -282 531 -47 52 -199 179 -224 188 -7 2 -9 -176
-6 -597z"/>
</g>
</svg>
