<?xml version="1.0" standalone="no"?>
<!DOCTYPE svg PUBLIC "-//W3C//DTD SVG 20010904//EN"
 "http://www.w3.org/TR/2001/REC-SVG-20010904/DTD/svg10.dtd">
<svg version="1.0" xmlns="http://www.w3.org/2000/svg"
 width="122.000000pt" height="122.000000pt" viewBox="0 0 122.000000 122.000000"
 preserveAspectRatio="xMidYMid meet">

<g transform="translate(0.000000,122.000000) scale(0.100000,-0.100000)"
fill="#000000" stroke="none">
<path d="M575 1211 c-11 -5 -91 -81 -177 -168 -148 -149 -158 -162 -158 -197
0 -52 44 -96 95 -96 32 0 46 9 106 67 l69 66 0 -189 c0 -212 4 -229 62 -257
33 -16 40 -17 72 -3 60 25 66 50 66 262 l0 187 69 -66 c60 -58 74 -67 106 -67
51 0 95 44 95 96 0 35 -10 48 -162 201 -167 167 -194 185 -243 164z"/>
<path d="M33 516 l-28 -24 -3 -203 c-3 -222 2 -250 49 -274 42 -22 1076 -22
1118 0 47 24 52 52 49 274 l-3 203 -28 24 c-44 38 -121 28 -146 -20 -6 -11
-12 -83 -13 -161 l-3 -140 -415 0 -415 0 -3 140 c-1 78 -7 150 -13 161 -25 48
-102 58 -146 20z"/>
</g>
</svg>
