
<svg version="1.0" xmlns="http://www.w3.org/2000/svg"
 width="138.000000pt" height="138.000000pt" viewBox="0 0 138.000000 138.000000"
 preserveAspectRatio="xMidYMid meet">

<g transform="translate(0.000000,138.000000) scale(0.100000,-0.100000)"
fill="#000000" stroke="none">
<path d="M712 553 c1 -50 2 -52 5 -15 5 47 13 52 42 21 21 -22 51 -23 59 0 3
9 -2 11 -17 6 -16 -5 -32 1 -56 20 l-35 26 2 -58z"/>
<path d="M585 574 c-11 -8 -30 -13 -42 -11 -15 3 -20 0 -16 -10 7 -17 38 -17
55 0 7 7 22 18 33 25 14 8 15 11 5 11 -8 0 -24 -7 -35 -15z"/>
<path d="M622 400 c0 -14 2 -19 5 -12 2 6 2 18 0 25 -3 6 -5 1 -5 -13z"/>
<path d="M675 203 c-36 -9 -41 -23 -7 -23 22 0 32 5 32 15 0 8 -1 14 -2 14 -2
-1 -12 -3 -23 -6z"/>
</g>
</svg>
